<svg xmlns="http://www.w3.org/2000/svg"
     viewBox="0 0 12 16">
   <defs>
      <clipPath id="globe">
         <circle cx="6" cy="8" r="5.8" />
      </clipPath>
   </defs>
   <circle cx="6" cy="8" r="5.8" fill="#1681bd" />
   <g clip-path="url(#globe)" fill="#65a84f">
      <path d="M2.1 6.2c.8-.7 1.6-.9 2.4-.5l.3.7-.7.3-.5-.2-.4.4-.7-.2z" />
      <path d="m4.3 8.2.7.1.3.7-.3.8-.4.7-.4-.5.2-.9z" />
      <path d="m6.2 5.7 1-.4 1.6.4.7.7-.6.4-.8-.2-.5.5-.8-.2-.4.5-.5-.5z" />
      <path d="m7 7.5.8.1.6.7-.3.6-.2.9-.6.4-.3-.7.2-.7-.4-.6z" />
      <path d="m9.4 9.6.7.4.2.8-.6.4-.6-.6z" />
   </g>
   <circle cx="6" cy="8" r="5.8"
           fill="none" stroke="#fff" stroke-width=".35" />
</svg>
